STARTFONT 2.1
FONT Font
SIZE 16 75 75
FONTBOUNDINGBOX 16 16 0 -2
STARTPROPERTIES 5
PIXEL_SIZE 16
POINT_SIZE 160
SPACING "C"
FONT_ASCENT 14
FONT_DESCENT 2
ENDPROPERTIES
CHARS 256
STARTCHAR U+F100
ENCODING 61696
SWIDTH 960 0
DWIDTH 16 0
BBX 16 16 0 -2
BITMAP
0000
0000
0000
0000
0000
0000
0000
0000
0000
0000
0000
0000
0000
0000
0000
0000
ENDCHAR
STARTCHAR U+F101
ENCODING 61697
SWIDTH 960 0
DWIDTH 16 0
BBX 16 16 0 -2
BITMAP
0000
0000
0000
3FFC
000C
000C
000C
000C
000C
000C
000C
000C
000C
0000
0000
0000
ENDCHAR
STARTCHAR U+F102
ENCODING 61698
SWIDTH 960 0
DWIDTH 16 0
BBX 16 16 0 -2
BITMAP
0000
0000
0000
3FFC
030C
030C
030C
030C
030C
030C
030C
030C
030C
0000
0000
0000
ENDCHAR
STARTCHAR U+F103
ENCODING 61699
SWIDTH 960 0
DWIDTH 16 0
BBX 16 16 0 -2
BITMAP
0000
0000
0000
3F30
0330
0330
0330
0330
0378
0378
03CC
03CC
0386
0000
0000
0000
ENDCHAR
STARTCHAR U+F104
ENCODING 61700
SWIDTH 960 0
DWIDTH 16 0
BBX 16 16 0 -2
BITMAP
0000
0000
0000
3000
3000
3000
3000
3000
3000
3000
3000
3000
1FFC
0000
0000
0000
ENDCHAR
STARTCHAR U+F105
ENCODING 61701
SWIDTH 960 0
DWIDTH 16 0
BBX 16 16 0 -2
BITMAP
0000
0000
0000
31FE
3030
3030
3030
3030
3078
3078
30CC
30CC
1F86
0000
0000
0000
ENDCHAR
STARTCHAR U+F106
ENCODING 61702
SWIDTH 960 0
DWIDTH 16 0
BBX 16 16 0 -2
BITMAP
0000
0000
0000
3078
3000
31FE
3000
3078
30CC
30CC
30CC
30CC
1F78
0000
0000
0000
ENDCHAR
STARTCHAR U+F107
ENCODING 61703
SWIDTH 960 0
DWIDTH 16 0
BBX 16 16 0 -2
BITMAP
0000
0000
0000
3FFC
3000
3000
3000
3000
3000
3000
3000
3000
1FFC
0000
0000
0000
ENDCHAR
STARTCHAR U+F108
ENCODING 61704
SWIDTH 960 0
DWIDTH 16 0
BBX 16 16 0 -2
BITMAP
0000
0000
0000
3F7C
30C0
30C0
30C0
30C0
30C0
30C0
30C0
30C0
1F7C
0000
0000
0000
ENDCHAR
STARTCHAR U+F109
ENCODING 61705
SWIDTH 960 0
DWIDTH 16 0
BBX 16 16 0 -2
BITMAP
0000
0000
0000
3FFC
000C
000C
000C
3FF8
3000
3000
3000
3000
1FFC
0000
0000
0000
ENDCHAR
STARTCHAR U+F10A
ENCODING 61706
SWIDTH 960 0
DWIDTH 16 0
BBX 16 16 0 -2
BITMAP
0000
0000
0000
3F7E
0306
0306
0306
3E06
3006
3006
3006
3006
1F06
0000
0000
0000
ENDCHAR
STARTCHAR U+F10B
ENCODING 61707
SWIDTH 960 0
DWIDTH 16 0
BBX 16 16 0 -2
BITMAP
0000
0000
0000
3F7E
0366
0366
0366
3E66
3066
3066
3066
3066
1F3E
0000
0000
0000
ENDCHAR
STARTCHAR U+F10C
ENCODING 61708
SWIDTH 960 0
DWIDTH 16 0
BBX 16 16 0 -2
BITMAP
0000
0000
0000
3F66
0366
0366
0366
3E7E
3066
3066
3066
3066
1F3E
0000
0000
0000
ENDCHAR
STARTCHAR U+F10D
ENCODING 61709
SWIDTH 960 0
DWIDTH 16 0
BBX 16 16 0 -2
BITMAP
0000
0000
0000
3F30
0330
0330
0330
3E30
3078
3078
30CC
30CC
1F86
0000
0000
0000
ENDCHAR
STARTCHAR U+F10E
ENCODING 61710
SWIDTH 960 0
DWIDTH 16 0
BBX 16 16 0 -2
BITMAP
0000
0000
0000
3F7E
0360
0360
0360
3E7C
3060
3060
3060
3060
1F3E
0000
0000
0000
ENDCHAR
STARTCHAR U+F10F
ENCODING 61711
SWIDTH 960 0
DWIDTH 16 0
BBX 16 16 0 -2
BITMAP
0000
0000
0000
3EFE
0300
036C
036C
3E6C
306C
306C
306C
306C
1FFE
0000
0000
0000
ENDCHAR
STARTCHAR U+F110
ENCODING 61712
SWIDTH 960 0
DWIDTH 16 0
BBX 16 16 0 -2
BITMAP
0000
0000
0000
3F78
0300
03FE
0300
3E78
30CC
30CC
30CC
30CC
1F78
0000
0000
0000
ENDCHAR
STARTCHAR U+F111
ENCODING 61713
SWIDTH 960 0
DWIDTH 16 0
BBX 16 16 0 -2
BITMAP
0000
0000
0000
3FFC
300C
300C
300C
300C
300C
300C
300C
300C
1FFC
0000
0000
0000
ENDCHAR
STARTCHAR U+F112
ENCODING 61714
SWIDTH 960 0
DWIDTH 16 0
BBX 16 16 0 -2
BITMAP
0000
0000
0000
300C
300C
300C
300C
3FFC
300C
300C
300C
300C
1FFC
0000
0000
0000
ENDCHAR
STARTCHAR U+F113
ENCODING 61715
SWIDTH 960 0
DWIDTH 16 0
BBX 16 16 0 -2
BITMAP
0000
0000
0000
3366
3366
3366
3366
3F7E
3366
3366
3366
3366
1F3E
0000
0000
0000
ENDCHAR
STARTCHAR U+F114
ENCODING 61716
SWIDTH 960 0
DWIDTH 16 0
BBX 16 16 0 -2
BITMAP
0000
0000
0000
3330
3330
3330
3330
3F30
3378
3378
33CC
33CC
1F86
0000
0000
0000
ENDCHAR
STARTCHAR U+F115
ENCODING 61717
SWIDTH 960 0
DWIDTH 16 0
BBX 16 16 0 -2
BITMAP
0000
0000
0000
0180
0180
0180
03C0
03C0
0660
0660
0C30
1818
300C
0000
0000
0000
ENDCHAR
STARTCHAR U+F116
ENCODING 61718
SWIDTH 960 0
DWIDTH 16 0
BBX 16 16 0 -2
BITMAP
0000
0000
0000
0630
0630
0630
0630
0630
0F78
0F78
19CC
19CC
3086
0000
0000
0000
ENDCHAR
STARTCHAR U+F117
ENCODING 61719
SWIDTH 960 0
DWIDTH 16 0
BBX 16 16 0 -2
BITMAP
0000
0000
0000
07E0
0C30
1818
300C
300C
300C
300C
1818
0C30
07E0
0000
0000
0000
ENDCHAR
STARTCHAR U+F118
ENCODING 61720
SWIDTH 960 0
DWIDTH 16 0
BBX 16 16 0 -2
BITMAP
0000
0000
0000
3FFC
0180
0180
0180
03C0
03C0
0660
0C30
1818
300C
0000
0000
0000
ENDCHAR
STARTCHAR U+F119
ENCODING 61721
SWIDTH 960 0
DWIDTH 16 0
BBX 16 16 0 -2
BITMAP
0000
0000
0000
3FFE
0630
0630
0630
0630
0F78
0F78
19CC
19CC
3086
0000
0000
0000
ENDCHAR
STARTCHAR U+F11A
ENCODING 61722
SWIDTH 960 0
DWIDTH 16 0
BBX 16 16 0 -2
BITMAP
0000
0000
0000
0FF0
0000
3FFC
0180
0180
03C0
03C0
0660
0C30
381C
0000
0000
0000
ENDCHAR
STARTCHAR U+F11B
ENCODING 61723
SWIDTH 960 0
DWIDTH 16 0
BBX 16 16 0 -2
BITMAP
0000
0000
0000
3FFC
000C
000C
000C
000C
3FFC
000C
000C
000C
000C
0000
0000
0000
ENDCHAR
STARTCHAR U+F11C
ENCODING 61724
SWIDTH 960 0
DWIDTH 16 0
BBX 16 16 0 -2
BITMAP
0000
0000
0000
3FFC
3000
3000
3000
3FFC
3000
3000
3000
3000
1FFC
0000
0000
0000
ENDCHAR
STARTCHAR U+F11D
ENCODING 61725
SWIDTH 960 0
DWIDTH 16 0
BBX 16 16 0 -2
BITMAP
0000
0000
0000
3FFC
0C30
0C30
0C30
0C30
0C30
0C30
0C30
0C30
3FFC
0000
0000
0000
ENDCHAR
STARTCHAR U+F11E
ENCODING 61726
SWIDTH 960 0
DWIDTH 16 0
BBX 16 16 0 -2
BITMAP
0000
0000
0000
0FF0
0000
3FFC
0000
07E0
0C30
1818
1818
0C30
07E0
0000
0000
0000
ENDCHAR
STARTCHAR U+F11F
ENCODING 61727
SWIDTH 960 0
DWIDTH 16 0
BBX 16 16 0 -2
BITMAP
0000
0000
0180
0180
0180
0180
0180
0180
01F0
0180
0180
0180
0180
0180
0180
0180
ENDCHAR
STARTCHAR U+F120
ENCODING 61728
SWIDTH 960 0
DWIDTH 16 0
BBX 16 16 0 -2
BITMAP
0000
0000
0660
0660
0660
0660
0660
0660
07E0
0660
0660
0660
0660
0660
0660
0660
ENDCHAR
STARTCHAR U+F121
ENCODING 61729
SWIDTH 960 0
DWIDTH 16 0
BBX 16 16 0 -2
BITMAP
0000
0000
0180
0180
0180
0180
01F0
0180
0180
0180
01F0
0180
0180
0180
0180
0180
ENDCHAR
STARTCHAR U+F122
ENCODING 61730
SWIDTH 960 0
DWIDTH 16 0
BBX 16 16 0 -2
BITMAP
0000
0000
0660
0660
0660
0660
07E0
0660
0660
0660
07E0
0660
0660
0660
0660
0660
ENDCHAR
STARTCHAR U+F123
ENCODING 61731
SWIDTH 960 0
DWIDTH 16 0
BBX 16 16 0 -2
BITMAP
0000
0000
0180
0180
0180
0180
0180
0180
0F80
0180
0180
0180
0180
0180
0180
0180
ENDCHAR
STARTCHAR U+F124
ENCODING 61732
SWIDTH 960 0
DWIDTH 16 0
BBX 16 16 0 -2
BITMAP
0000
0000
0660
0660
0660
0660
0660
0660
3E60
0660
0660
0660
0660
0660
0660
0660
ENDCHAR
STARTCHAR U+F125
ENCODING 61733
SWIDTH 960 0
DWIDTH 16 0
BBX 16 16 0 -2
BITMAP
0000
0000
0180
0180
0180
0180
0F80
0180
0180
0180
0F80
0180
0180
0180
0180
0180
ENDCHAR
STARTCHAR U+F126
ENCODING 61734
SWIDTH 960 0
DWIDTH 16 0
BBX 16 16 0 -2
BITMAP
0000
0000
0660
0660
0660
0660
3E60
0660
0660
0660
3E60
0660
0660
0660
0660
0660
ENDCHAR
STARTCHAR U+F127
ENCODING 61735
SWIDTH 960 0
DWIDTH 16 0
BBX 16 16 0 -2
BITMAP
0000
0000
0000
0000
0000
0000
0000
0000
0000
0000
0180
0180
0180
7FFE
0000
0000
ENDCHAR
STARTCHAR U+F128
ENCODING 61736
SWIDTH 960 0
DWIDTH 16 0
BBX 16 16 0 -2
BITMAP
0000
0000
0018
0018
0018
0018
0018
0018
001E
0018
0C18
0C18
0C18
7FD8
0018
0018
ENDCHAR
STARTCHAR U+F129
ENCODING 61737
SWIDTH 960 0
DWIDTH 16 0
BBX 16 16 0 -2
BITMAP
0000
0000
0036
0036
0036
0036
0036
0036
003E
0036
0C36
0C36
0C36
7FB6
0036
0036
ENDCHAR
STARTCHAR U+F12A
ENCODING 61738
SWIDTH 960 0
DWIDTH 16 0
BBX 16 16 0 -2
BITMAP
0000
0000
0006
0006
0006
0006
0006
0006
0006
0006
0606
0606
0606
7FF6
0006
0006
ENDCHAR
STARTCHAR U+F12B
ENCODING 61739
SWIDTH 960 0
DWIDTH 16 0
BBX 16 16 0 -2
BITMAP
0000
0000
0000
0000
0000
0000
0000
0000
0000
0000
0C30
0C30
0C30
7FFE
0000
0000
ENDCHAR
STARTCHAR U+F12C
ENCODING 61740
SWIDTH 960 0
DWIDTH 16 0
BBX 16 16 0 -2
BITMAP
0000
0000
0000
0000
0000
0000
0000
0000
7FFE
0180
0180
0180
0180
0180
0180
0180
ENDCHAR
STARTCHAR U+F12D
ENCODING 61741
SWIDTH 960 0
DWIDTH 16 0
BBX 16 16 0 -2
BITMAP
0000
0000
0006
0006
0006
0006
0006
0006
7FF6
0606
0606
063E
0606
0606
0606
0606
ENDCHAR
STARTCHAR U+F12E
ENCODING 61742
SWIDTH 960 0
DWIDTH 16 0
BBX 16 16 0 -2
BITMAP
0000
0000
0036
0036
0036
0036
0036
0036
7FB6
0C36
0C36
0CF6
0C36
0C36
0C36
0C36
ENDCHAR
STARTCHAR U+F12F
ENCODING 61743
SWIDTH 960 0
DWIDTH 16 0
BBX 16 16 0 -2
BITMAP
0000
0000
0006
0006
0006
0006
0006
0006
7FF6
0606
0606
0606
0606
0606
0606
0606
ENDCHAR
STARTCHAR U+F130
ENCODING 61744
SWIDTH 960 0
DWIDTH 16 0
BBX 16 16 0 -2
BITMAP
0000
0000
0000
0000
0000
0000
0000
0000
7FFE
0C30
0C30
0C30
0C30
0C30
0C30
0C30
ENDCHAR
STARTCHAR U+F131
ENCODING 61745
SWIDTH 960 0
DWIDTH 16 0
BBX 16 16 0 -2
BITMAP
0000
0000
0000
0000
0000
0000
0000
0000
7FFE
0000
0000
0000
0000
0000
0000
0000
ENDCHAR
STARTCHAR U+F132
ENCODING 61746
SWIDTH 960 0
DWIDTH 16 0
BBX 16 16 0 -2
BITMAP
0000
0000
0006
0006
0006
0006
0006
0006
0006
0006
0006
0006
0006
7FF6
0006
0006
ENDCHAR
STARTCHAR U+F133
ENCODING 61747
SWIDTH 960 0
DWIDTH 16 0
BBX 16 16 0 -2
BITMAP
0000
0000
0180
0180
0180
0180
0180
0180
0180
0180
0180
0180
0180
0180
0180
0180
ENDCHAR
STARTCHAR U+F134
ENCODING 61748
SWIDTH 960 0
DWIDTH 16 0
BBX 16 16 0 -2
BITMAP
0000
0000
0000
7F80
0180
0180
0180
0180
0300
0300
0600
1C00
7000
0000
0000
0000
ENDCHAR
STARTCHAR U+F135
ENCODING 61749
SWIDTH 960 0
DWIDTH 16 0
BBX 16 16 0 -2
BITMAP
0000
0000
0000
7F80
0D80
0D80
0D80
0D80
0D80
1B00
1B00
3600
6C00
0000
0000
0000
ENDCHAR
STARTCHAR U+F136
ENCODING 61750
SWIDTH 960 0
DWIDTH 16 0
BBX 16 16 0 -2
BITMAP
0000
0000
0000
6000
6000
6000
6000
6000
6000
6000
6000
6000
3F80
0000
0000
0000
ENDCHAR
STARTCHAR U+F137
ENCODING 61751
SWIDTH 960 0
DWIDTH 16 0
BBX 16 16 0 -2
BITMAP
0000
0000
0000
7F80
6000
6000
6000
6000
6000
6000
6000
6000
3F80
0000
0000
0000
ENDCHAR
STARTCHAR U+F138
ENCODING 61752
SWIDTH 960 0
DWIDTH 16 0
BBX 16 16 0 -2
BITMAP
0000
0000
0000
7F80
6600
6600
6600
6600
6600
6600
6600
6600
3B80
0000
0000
0000
ENDCHAR
STARTCHAR U+F139
ENCODING 61753
SWIDTH 960 0
DWIDTH 16 0
BBX 16 16 0 -2
BITMAP
0000
0000
0000
7F80
0180
0180
0180
7F00
6000
6000
6000
6000
3F80
0000
0000
0000
ENDCHAR
STARTCHAR U+F13A
ENCODING 61754
SWIDTH 960 0
DWIDTH 16 0
BBX 16 16 0 -2
BITMAP
0000
0000
0000
7F80
6180
6180
6180
6180
6180
6180
6180
6180
3F80
0000
0000
0000
ENDCHAR
STARTCHAR U+F13B
ENCODING 61755
SWIDTH 960 0
DWIDTH 16 0
BBX 16 16 0 -2
BITMAP
0000
0000
0000
6180
6180
6180
6180
7F80
6180
6180
6180
6180
3F80
0000
0000
0000
ENDCHAR
STARTCHAR U+F13C
ENCODING 61756
SWIDTH 960 0
DWIDTH 16 0
BBX 16 16 0 -2
BITMAP
0000
0000
0000
6D80
6D80
6D80
6D80
7F80
6D80
6D80
6D80
6D80
3F80
0000
0000
0000
ENDCHAR
STARTCHAR U+F13D
ENCODING 61757
SWIDTH 960 0
DWIDTH 16 0
BBX 16 16 0 -2
BITMAP
0000
0000
0000
0C00
0C00
0C00
0C00
0C00
1E00
1E00
3300
3300
6180
0000
0000
0000
ENDCHAR
STARTCHAR U+F13E
ENCODING 61758
SWIDTH 960 0
DWIDTH 16 0
BBX 16 16 0 -2
BITMAP
0000
0000
0000
3300
3300
3300
3300
3300
3300
7F80
6D80
6D80
6D80
0000
0000
0000
ENDCHAR
STARTCHAR U+F13F
ENCODING 61759
SWIDTH 960 0
DWIDTH 16 0
BBX 16 16 0 -2
BITMAP
0000
0000
0000
1E00
3300
6180
6180
6180
6180
6180
6180
3300
1E00
0000
0000
0000
ENDCHAR
STARTCHAR U+F140
ENCODING 61760
SWIDTH 960 0
DWIDTH 16 0
BBX 16 16 0 -2
BITMAP
0000
0000
0000
7F80
0C00
0C00
0C00
0C00
1E00
1E00
3300
3300
6180
0000
0000
0000
ENDCHAR
STARTCHAR U+F141
ENCODING 61761
SWIDTH 960 0
DWIDTH 16 0
BBX 16 16 0 -2
BITMAP
0000
0000
0000
7F80
3300
3300
3300
3300
3300
3300
7F80
6D80
6D80
0000
0000
0000
ENDCHAR
STARTCHAR U+F142
ENCODING 61762
SWIDTH 960 0
DWIDTH 16 0
BBX 16 16 0 -2
BITMAP
0000
0000
0000
1E00
0000
7F80
0C00
0C00
1E00
1E00
3300
3300
6180
0000
0000
0000
ENDCHAR
STARTCHAR U+F143
ENCODING 61763
SWIDTH 960 0
DWIDTH 16 0
BBX 16 16 0 -2
BITMAP
0000
0000
0000
7F80
0180
0180
0180
7F80
0300
0300
0600
1C00
7000
0000
0000
0000
ENDCHAR
STARTCHAR U+F144
ENCODING 61764
SWIDTH 960 0
DWIDTH 16 0
BBX 16 16 0 -2
BITMAP
0000
0000
0000
7F80
6000
6000
6000
7E00
6000
6000
6000
6000
3F80
0000
0000
0000
ENDCHAR
STARTCHAR U+F145
ENCODING 61765
SWIDTH 960 0
DWIDTH 16 0
BBX 16 16 0 -2
BITMAP
0000
0000
0000
7F80
0000
3300
3300
3300
3300
3300
3300
3300
7F80
0000
0000
0000
ENDCHAR
STARTCHAR U+F146
ENCODING 61766
SWIDTH 960 0
DWIDTH 16 0
BBX 16 16 0 -2
BITMAP
0000
0000
0000
3E00
0000
FF80
0000
3E00
6300
6300
6300
6300
3E00
0000
0000
0000
ENDCHAR
STARTCHAR U+F147
ENCODING 61767
SWIDTH 960 0
DWIDTH 16 0
BBX 16 16 0 -2
BITMAP
0000
0000
0000
7F80
0180
0180
0180
0180
0180
0180
0180
0000
0000
0000
0000
0000
ENDCHAR
STARTCHAR U+F148
ENCODING 61768
SWIDTH 960 0
DWIDTH 16 0
BBX 16 16 0 -2
BITMAP
0000
0000
0000
7F80
0D80
0D80
0D80
0D80
1980
3300
0000
0000
0000
0000
0000
0000
ENDCHAR
STARTCHAR U+F149
ENCODING 61769
SWIDTH 960 0
DWIDTH 16 0
BBX 16 16 0 -2
BITMAP
0000
0000
0000
6000
6000
6000
6000
6000
6000
3F80
0000
0000
0000
0000
0000
0000
ENDCHAR
STARTCHAR U+F14A
ENCODING 61770
SWIDTH 960 0
DWIDTH 16 0
BBX 16 16 0 -2
BITMAP
0000
0000
0000
7F80
6000
6000
6000
6000
6000
3F80
0000
0000
0000
0000
0000
0000
ENDCHAR
STARTCHAR U+F14B
ENCODING 61771
SWIDTH 960 0
DWIDTH 16 0
BBX 16 16 0 -2
BITMAP
0000
0000
0000
7F80
6600
6600
6600
6600
6600
3B80
0000
0000
0000
0000
0000
0000
ENDCHAR
STARTCHAR U+F14C
ENCODING 61772
SWIDTH 960 0
DWIDTH 16 0
BBX 16 16 0 -2
BITMAP
0000
0000
0000
7F80
0180
0180
7F00
6000
6000
3F80
0000
0000
0000
0000
0000
0000
ENDCHAR
STARTCHAR U+F14D
ENCODING 61773
SWIDTH 960 0
DWIDTH 16 0
BBX 16 16 0 -2
BITMAP
0000
0000
0000
7F80
6180
6180
6180
6180
6180
3F80
0000
0000
0000
0000
0000
0000
ENDCHAR
STARTCHAR U+F14E
ENCODING 61774
SWIDTH 960 0
DWIDTH 16 0
BBX 16 16 0 -2
BITMAP
0000
0000
0000
6180
6180
6180
7F80
6180
6180
3F80
0000
0000
0000
0000
0000
0000
ENDCHAR
STARTCHAR U+F14F
ENCODING 61775
SWIDTH 960 0
DWIDTH 16 0
BBX 16 16 0 -2
BITMAP
0000
0000
0000
6D80
6D80
6D80
7F80
6D80
6D80
3F80
0000
0000
0000
0000
0000
0000
ENDCHAR
STARTCHAR U+F150
ENCODING 61776
SWIDTH 960 0
DWIDTH 16 0
BBX 16 16 0 -2
BITMAP
0000
0000
0000
0C00
0C00
0C00
0C00
1E00
3300
6180
0000
0000
0000
0000
0000
0000
ENDCHAR
STARTCHAR U+F151
ENCODING 61777
SWIDTH 960 0
DWIDTH 16 0
BBX 16 16 0 -2
BITMAP
0000
0000
0000
3300
3300
3300
3300
7F80
6D80
6D80
0000
0000
0000
0000
0000
0000
ENDCHAR
STARTCHAR U+F152
ENCODING 61778
SWIDTH 960 0
DWIDTH 16 0
BBX 16 16 0 -2
BITMAP
0000
0000
0000
1E00
3300
6180
6180
6180
3300
1E00
0000
0000
0000
0000
0000
0000
ENDCHAR
STARTCHAR U+F153
ENCODING 61779
SWIDTH 960 0
DWIDTH 16 0
BBX 16 16 0 -2
BITMAP
0000
0000
0000
7F80
0C00
0C00
0C00
1E00
3300
6180
0000
0000
0000
0000
0000
0000
ENDCHAR
STARTCHAR U+F154
ENCODING 61780
SWIDTH 960 0
DWIDTH 16 0
BBX 16 16 0 -2
BITMAP
0000
0000
0000
7F80
3300
3300
3300
3F00
6D80
6D80
0000
0000
0000
0000
0000
0000
ENDCHAR
STARTCHAR U+F155
ENCODING 61781
SWIDTH 960 0
DWIDTH 16 0
BBX 16 16 0 -2
BITMAP
0000
0000
0000
3F00
0000
7F80
0C00
1E00
3300
6180
0000
0000
0000
0000
0000
0000
ENDCHAR
STARTCHAR U+F156
ENCODING 61782
SWIDTH 960 0
DWIDTH 16 0
BBX 16 16 0 -2
BITMAP
0000
0000
0000
7F80
0180
0180
7F80
0180
0180
0180
0180
0000
0000
0000
0000
0000
ENDCHAR
STARTCHAR U+F157
ENCODING 61783
SWIDTH 960 0
DWIDTH 16 0
BBX 16 16 0 -2
BITMAP
0000
0000
0000
7F80
6000
6000
7F00
6000
6000
3F80
0000
0000
0000
0000
0000
0000
ENDCHAR
STARTCHAR U+F158
ENCODING 61784
SWIDTH 960 0
DWIDTH 16 0
BBX 16 16 0 -2
BITMAP
0000
0000
0000
7F80
0000
3300
3300
3300
3300
7F80
0000
0000
0000
0000
0000
0000
ENDCHAR
STARTCHAR U+F159
ENCODING 61785
SWIDTH 960 0
DWIDTH 16 0
BBX 16 16 0 -2
BITMAP
0000
0000
0000
3E00
0000
FF80
3E00
6300
6300
3E00
0000
0000
0000
0000
0000
0000
ENDCHAR
STARTCHAR U+F15A
ENCODING 61786
SWIDTH 960 0
DWIDTH 16 0
BBX 16 16 0 -2
BITMAP
0000
0000
0000
3FFC
000C
000C
000C
000C
000C
000C
000C
0000
0000
0000
0000
0000
ENDCHAR
STARTCHAR U+F15B
ENCODING 61787
SWIDTH 960 0
DWIDTH 16 0
BBX 16 16 0 -2
BITMAP
0000
0000
0000
3FFC
030C
030C
060C
060C
0C0C
1818
0000
0000
0000
0000
0000
0000
ENDCHAR
STARTCHAR U+F15C
ENCODING 61788
SWIDTH 960 0
DWIDTH 16 0
BBX 16 16 0 -2
BITMAP
0000
0000
0000
3000
3000
3000
3000
3000
3000
1FFC
0000
0000
0000
0000
0000
0000
ENDCHAR
STARTCHAR U+F15D
ENCODING 61789
SWIDTH 960 0
DWIDTH 16 0
BBX 16 16 0 -2
BITMAP
0000
0000
0000
3FFC
3000
3000
3000
3000
3000
1FFC
0000
0000
0000
0000
0000
0000
ENDCHAR
STARTCHAR U+F15E
ENCODING 61790
SWIDTH 960 0
DWIDTH 16 0
BBX 16 16 0 -2
BITMAP
0000
0000
0000
3FFC
30C0
30C0
30C0
30C0
30C0
1F7C
0000
0000
0000
0000
0000
0000
ENDCHAR
STARTCHAR U+F15F
ENCODING 61791
SWIDTH 960 0
DWIDTH 16 0
BBX 16 16 0 -2
BITMAP
0000
0000
0000
3FFC
000C
000C
3FF8
3000
3000
1FFC
0000
0000
0000
0000
0000
0000
ENDCHAR
STARTCHAR U+F160
ENCODING 61792
SWIDTH 960 0
DWIDTH 16 0
BBX 16 16 0 -2
BITMAP
0000
0000
0000
3FFC
300C
300C
300C
300C
300C
1FFC
0000
0000
0000
0000
0000
0000
ENDCHAR
STARTCHAR U+F161
ENCODING 61793
SWIDTH 960 0
DWIDTH 16 0
BBX 16 16 0 -2
BITMAP
0000
0000
0000
300C
300C
300C
3FFC
300C
300C
1FFC
0000
0000
0000
0000
0000
0000
ENDCHAR
STARTCHAR U+F162
ENCODING 61794
SWIDTH 960 0
DWIDTH 16 0
BBX 16 16 0 -2
BITMAP
0000
0000
0000
318C
318C
318C
3FFC
318C
318C
1FFC
0000
0000
0000
0000
0000
0000
ENDCHAR
STARTCHAR U+F163
ENCODING 61795
SWIDTH 960 0
DWIDTH 16 0
BBX 16 16 0 -2
BITMAP
0000
0000
0000
0180
0180
0180
03C0
0660
0C30
381C
0000
0000
0000
0000
0000
0000
ENDCHAR
STARTCHAR U+F164
ENCODING 61796
SWIDTH 960 0
DWIDTH 16 0
BBX 16 16 0 -2
BITMAP
0000
0000
0000
0C30
0C30
0C30
0C30
1E78
33CC
6186
0000
0000
0000
0000
0000
0000
ENDCHAR
STARTCHAR U+F165
ENCODING 61797
SWIDTH 960 0
DWIDTH 16 0
BBX 16 16 0 -2
BITMAP
0000
0000
0000
0FF0
1818
300C
300C
300C
1818
0FF0
0000
0000
0000
0000
0000
0000
ENDCHAR
STARTCHAR U+F166
ENCODING 61798
SWIDTH 960 0
DWIDTH 16 0
BBX 16 16 0 -2
BITMAP
0000
0000
0000
3FFC
0180
0180
03C0
0660
0C30
381C
0000
0000
0000
0000
0000
0000
ENDCHAR
STARTCHAR U+F167
ENCODING 61799
SWIDTH 960 0
DWIDTH 16 0
BBX 16 16 0 -2
BITMAP
0000
0000
0000
3FFC
0C30
0C30
0C30
1E78
33CC
6186
0000
0000
0000
0000
0000
0000
ENDCHAR
STARTCHAR U+F168
ENCODING 61800
SWIDTH 960 0
DWIDTH 16 0
BBX 16 16 0 -2
BITMAP
0000
0000
0000
07E0
0000
3FFC
0180
03C0
0E70
381C
0000
0000
0000
0000
0000
0000
ENDCHAR
STARTCHAR U+F169
ENCODING 61801
SWIDTH 960 0
DWIDTH 16 0
BBX 16 16 0 -2
BITMAP
0000
0000
0000
3FFC
000C
000C
3FFC
000C
000C
000C
000C
0000
0000
0000
0000
0000
ENDCHAR
STARTCHAR U+F16A
ENCODING 61802
SWIDTH 960 0
DWIDTH 16 0
BBX 16 16 0 -2
BITMAP
0000
0000
0000
3FFC
3000
3000
3FF8
3000
3000
1FFC
0000
0000
0000
0000
0000
0000
ENDCHAR
STARTCHAR U+F16B
ENCODING 61803
SWIDTH 960 0
DWIDTH 16 0
BBX 16 16 0 -2
BITMAP
0000
0000
0000
3FFC
0000
0C30
0C30
0C30
0C30
3FFC
0000
0000
0000
0000
0000
0000
ENDCHAR
STARTCHAR U+F16C
ENCODING 61804
SWIDTH 960 0
DWIDTH 16 0
BBX 16 16 0 -2
BITMAP
0000
0000
0000
07E0
0000
3FFC
0000
0FF0
1818
1818
0FF0
0000
0000
0000
0000
0000
ENDCHAR
STARTCHAR U+F16D
ENCODING 61805
SWIDTH 960 0
DWIDTH 16 0
BBX 16 16 0 -2
BITMAP
0000
0000
7F80
0180
0180
0300
0300
0E00
7800
0000
0000
0000
0000
0000
0000
0000
ENDCHAR
STARTCHAR U+F16E
ENCODING 61806
SWIDTH 960 0
DWIDTH 16 0
BBX 16 16 0 -2
BITMAP
0000
0000
7F80
0D80
0D80
1B00
1B00
3600
6C00
0000
0000
0000
0000
0000
0000
0000
ENDCHAR
STARTCHAR U+F16F
ENCODING 61807
SWIDTH 960 0
DWIDTH 16 0
BBX 16 16 0 -2
BITMAP
0000
0000
6000
6000
6000
6000
6000
6000
3F80
0000
0000
0000
0000
0000
0000
0000
ENDCHAR
STARTCHAR U+F170
ENCODING 61808
SWIDTH 960 0
DWIDTH 16 0
BBX 16 16 0 -2
BITMAP
0000
0000
7F80
6000
6000
6000
6000
6000
3F80
0000
0000
0000
0000
0000
0000
0000
ENDCHAR
STARTCHAR U+F171
ENCODING 61809
SWIDTH 960 0
DWIDTH 16 0
BBX 16 16 0 -2
BITMAP
0000
0000
7F80
6600
6600
6600
6600
6600
3B80
0000
0000
0000
0000
0000
0000
0000
ENDCHAR
STARTCHAR U+F172
ENCODING 61810
SWIDTH 960 0
DWIDTH 16 0
BBX 16 16 0 -2
BITMAP
0000
0000
7F80
0180
0180
7F00
6000
6000
3F80
0000
0000
0000
0000
0000
0000
0000
ENDCHAR
STARTCHAR U+F173
ENCODING 61811
SWIDTH 960 0
DWIDTH 16 0
BBX 16 16 0 -2
BITMAP
0000
0000
7F80
6180
6180
6180
6180
6180
3F80
0000
0000
0000
0000
0000
0000
0000
ENDCHAR
STARTCHAR U+F174
ENCODING 61812
SWIDTH 960 0
DWIDTH 16 0
BBX 16 16 0 -2
BITMAP
0000
0000
6180
6180
6180
7F80
6180
6180
3F80
0000
0000
0000
0000
0000
0000
0000
ENDCHAR
STARTCHAR U+F175
ENCODING 61813
SWIDTH 960 0
DWIDTH 16 0
BBX 16 16 0 -2
BITMAP
0000
0000
6D80
6D80
6D80
7F80
6D80
6D80
3F80
0000
0000
0000
0000
0000
0000
0000
ENDCHAR
STARTCHAR U+F176
ENCODING 61814
SWIDTH 960 0
DWIDTH 16 0
BBX 16 16 0 -2
BITMAP
0000
0000
0C00
0C00
0C00
0C00
1E00
3300
6180
0000
0000
0000
0000
0000
0000
0000
ENDCHAR
STARTCHAR U+F177
ENCODING 61815
SWIDTH 960 0
DWIDTH 16 0
BBX 16 16 0 -2
BITMAP
0000
0000
3300
3300
3300
3300
7F80
6D80
6D80
0000
0000
0000
0000
0000
0000
0000
ENDCHAR
STARTCHAR U+F178
ENCODING 61816
SWIDTH 960 0
DWIDTH 16 0
BBX 16 16 0 -2
BITMAP
0000
0000
1E00
3300
6180
6180
6180
3300
1E00
0000
0000
0000
0000
0000
0000
0000
ENDCHAR
STARTCHAR U+F179
ENCODING 61817
SWIDTH 960 0
DWIDTH 16 0
BBX 16 16 0 -2
BITMAP
0000
0000
7F80
0C00
0C00
0C00
1E00
3300
6180
0000
0000
0000
0000
0000
0000
0000
ENDCHAR
STARTCHAR U+F17A
ENCODING 61818
SWIDTH 960 0
DWIDTH 16 0
BBX 16 16 0 -2
BITMAP
0000
0000
7F80
3300
3300
3300
7F80
6D80
6D80
0000
0000
0000
0000
0000
0000
0000
ENDCHAR
STARTCHAR U+F17B
ENCODING 61819
SWIDTH 960 0
DWIDTH 16 0
BBX 16 16 0 -2
BITMAP
0000
0000
3F00
0000
7F80
0C00
1E00
3300
6180
0000
0000
0000
0000
0000
0000
0000
ENDCHAR
STARTCHAR U+F17C
ENCODING 61820
SWIDTH 960 0
DWIDTH 16 0
BBX 16 16 0 -2
BITMAP
0000
0000
7F80
0180
0180
7F00
0300
0E00
7800
0000
0000
0000
0000
0000
0000
0000
ENDCHAR
STARTCHAR U+F17D
ENCODING 61821
SWIDTH 960 0
DWIDTH 16 0
BBX 16 16 0 -2
BITMAP
0000
0000
7F80
6000
6000
7E00
6000
6000
3F80
0000
0000
0000
0000
0000
0000
0000
ENDCHAR
STARTCHAR U+F17E
ENCODING 61822
SWIDTH 960 0
DWIDTH 16 0
BBX 16 16 0 -2
BITMAP
0000
0000
7F80
0000
3300
3300
3300
3300
7F80
0000
0000
0000
0000
0000
0000
0000
ENDCHAR
STARTCHAR U+F17F
ENCODING 61823
SWIDTH 960 0
DWIDTH 16 0
BBX 16 16 0 -2
BITMAP
0000
0000
1C00
FF80
3E00
6300
6300
6300
3E00
0000
0000
0000
0000
0000
0000
0000
ENDCHAR
STARTCHAR U+F180
ENCODING 61824
SWIDTH 960 0
DWIDTH 16 0
BBX 16 16 0 -2
BITMAP
0000
0000
7F80
0180
0180
0180
0180
0180
0000
0000
0000
0000
0000
0000
0000
0000
ENDCHAR
STARTCHAR U+F181
ENCODING 61825
SWIDTH 960 0
DWIDTH 16 0
BBX 16 16 0 -2
BITMAP
0000
0000
7F80
1980
1980
1980
3300
0000
0000
0000
0000
0000
0000
0000
0000
0000
ENDCHAR
STARTCHAR U+F182
ENCODING 61826
SWIDTH 960 0
DWIDTH 16 0
BBX 16 16 0 -2
BITMAP
0000
0000
6000
6000
6000
6000
3F80
0000
0000
0000
0000
0000
0000
0000
0000
0000
ENDCHAR
STARTCHAR U+F183
ENCODING 61827
SWIDTH 960 0
DWIDTH 16 0
BBX 16 16 0 -2
BITMAP
0000
0000
7F80
6000
6000
6000
3F80
0000
0000
0000
0000
0000
0000
0000
0000
0000
ENDCHAR
STARTCHAR U+F184
ENCODING 61828
SWIDTH 960 0
DWIDTH 16 0
BBX 16 16 0 -2
BITMAP
0000
0000
7F80
6600
6600
6600
3B80
0000
0000
0000
0000
0000
0000
0000
0000
0000
ENDCHAR
STARTCHAR U+F185
ENCODING 61829
SWIDTH 960 0
DWIDTH 16 0
BBX 16 16 0 -2
BITMAP
0000
0000
7F80
0180
7F00
6000
3F80
0000
0000
0000
0000
0000
0000
0000
0000
0000
ENDCHAR
STARTCHAR U+F186
ENCODING 61830
SWIDTH 960 0
DWIDTH 16 0
BBX 16 16 0 -2
BITMAP
0000
0000
7F80
6180
6180
6180
3F80
0000
0000
0000
0000
0000
0000
0000
0000
0000
ENDCHAR
STARTCHAR U+F187
ENCODING 61831
SWIDTH 960 0
DWIDTH 16 0
BBX 16 16 0 -2
BITMAP
0000
0000
6180
6180
7F80
6180
3F80
0000
0000
0000
0000
0000
0000
0000
0000
0000
ENDCHAR
STARTCHAR U+F188
ENCODING 61832
SWIDTH 960 0
DWIDTH 16 0
BBX 16 16 0 -2
BITMAP
0000
0000
6D80
6D80
7F80
6D80
3F80
0000
0000
0000
0000
0000
0000
0000
0000
0000
ENDCHAR
STARTCHAR U+F189
ENCODING 61833
SWIDTH 960 0
DWIDTH 16 0
BBX 16 16 0 -2
BITMAP
0000
0000
0C00
0C00
1E00
3300
6180
0000
0000
0000
0000
0000
0000
0000
0000
0000
ENDCHAR
STARTCHAR U+F18A
ENCODING 61834
SWIDTH 960 0
DWIDTH 16 0
BBX 16 16 0 -2
BITMAP
0000
0000
3300
3300
3300
7F80
6D80
0000
0000
0000
0000
0000
0000
0000
0000
0000
ENDCHAR
STARTCHAR U+F18B
ENCODING 61835
SWIDTH 960 0
DWIDTH 16 0
BBX 16 16 0 -2
BITMAP
0000
0000
3F00
6180
6180
6180
3F00
0000
0000
0000
0000
0000
0000
0000
0000
0000
ENDCHAR
STARTCHAR U+F18C
ENCODING 61836
SWIDTH 960 0
DWIDTH 16 0
BBX 16 16 0 -2
BITMAP
0000
0000
7F80
0C00
1E00
3300
6180
0000
0000
0000
0000
0000
0000
0000
0000
0000
ENDCHAR
STARTCHAR U+F18D
ENCODING 61837
SWIDTH 960 0
DWIDTH 16 0
BBX 16 16 0 -2
BITMAP
0000
0000
7F80
3300
3300
7F80
6D80
0000
0000
0000
0000
0000
0000
0000
0000
0000
ENDCHAR
STARTCHAR U+F18E
ENCODING 61838
SWIDTH 960 0
DWIDTH 16 0
BBX 16 16 0 -2
BITMAP
0000
0000
0C00
7F80
1E00
3300
6180
0000
0000
0000
0000
0000
0000
0000
0000
0000
ENDCHAR
STARTCHAR U+F18F
ENCODING 61839
SWIDTH 960 0
DWIDTH 16 0
BBX 16 16 0 -2
BITMAP
0000
0000
7F80
0180
0180
7F80
0180
0180
0000
0000
0000
0000
0000
0000
0000
0000
ENDCHAR
STARTCHAR U+F190
ENCODING 61840
SWIDTH 960 0
DWIDTH 16 0
BBX 16 16 0 -2
BITMAP
0000
0000
7F80
6000
7F00
6000
3F80
0000
0000
0000
0000
0000
0000
0000
0000
0000
ENDCHAR
STARTCHAR U+F191
ENCODING 61841
SWIDTH 960 0
DWIDTH 16 0
BBX 16 16 0 -2
BITMAP
0000
0000
7F80
3300
3300
3300
7F80
0000
0000
0000
0000
0000
0000
0000
0000
0000
ENDCHAR
STARTCHAR U+F192
ENCODING 61842
SWIDTH 960 0
DWIDTH 16 0
BBX 16 16 0 -2
BITMAP
0000
0000
1C00
FF80
6300
6300
3E00
0000
0000
0000
0000
0000
0000
0000
0000
0000
ENDCHAR
STARTCHAR U+F193
ENCODING 61843
SWIDTH 960 0
DWIDTH 16 0
BBX 16 16 0 -2
BITMAP
0000
0000
3FFC
000C
000C
000C
000C
000C
0000
0000
0000
0000
0000
0000
0000
0000
ENDCHAR
STARTCHAR U+F194
ENCODING 61844
SWIDTH 960 0
DWIDTH 16 0
BBX 16 16 0 -2
BITMAP
0000
0000
3FFC
030C
030C
060C
0C18
0000
0000
0000
0000
0000
0000
0000
0000
0000
ENDCHAR
STARTCHAR U+F195
ENCODING 61845
SWIDTH 960 0
DWIDTH 16 0
BBX 16 16 0 -2
BITMAP
0000
0000
3000
3000
3000
3000
1FFC
0000
0000
0000
0000
0000
0000
0000
0000
0000
ENDCHAR
STARTCHAR U+F196
ENCODING 61846
SWIDTH 960 0
DWIDTH 16 0
BBX 16 16 0 -2
BITMAP
0000
0000
3FFC
3000
3000
3000
1FFC
0000
0000
0000
0000
0000
0000
0000
0000
0000
ENDCHAR
STARTCHAR U+F197
ENCODING 61847
SWIDTH 960 0
DWIDTH 16 0
BBX 16 16 0 -2
BITMAP
0000
0000
3FFC
30C0
30C0
30C0
1F7C
0000
0000
0000
0000
0000
0000
0000
0000
0000
ENDCHAR
STARTCHAR U+F198
ENCODING 61848
SWIDTH 960 0
DWIDTH 16 0
BBX 16 16 0 -2
BITMAP
0000
0000
3FFC
000C
3FF8
3000
1FFC
0000
0000
0000
0000
0000
0000
0000
0000
0000
ENDCHAR
STARTCHAR U+F199
ENCODING 61849
SWIDTH 960 0
DWIDTH 16 0
BBX 16 16 0 -2
BITMAP
0000
0000
3FFC
300C
300C
300C
1FFC
0000
0000
0000
0000
0000
0000
0000
0000
0000
ENDCHAR
STARTCHAR U+F19A
ENCODING 61850
SWIDTH 960 0
DWIDTH 16 0
BBX 16 16 0 -2
BITMAP
0000
0000
300C
300C
3FFC
300C
1FFC
0000
0000
0000
0000
0000
0000
0000
0000
0000
ENDCHAR
STARTCHAR U+F19B
ENCODING 61851
SWIDTH 960 0
DWIDTH 16 0
BBX 16 16 0 -2
BITMAP
0000
0000
318C
318C
3FFC
318C
1FFC
0000
0000
0000
0000
0000
0000
0000
0000
0000
ENDCHAR
STARTCHAR U+F19C
ENCODING 61852
SWIDTH 960 0
DWIDTH 16 0
BBX 16 16 0 -2
BITMAP
0000
0000
0180
0180
03C0
0E70
381C
0000
0000
0000
0000
0000
0000
0000
0000
0000
ENDCHAR
STARTCHAR U+F19D
ENCODING 61853
SWIDTH 960 0
DWIDTH 16 0
BBX 16 16 0 -2
BITMAP
0000
0000
0C30
0C30
1E78
33CC
6186
0000
0000
0000
0000
0000
0000
0000
0000
0000
ENDCHAR
STARTCHAR U+F19E
ENCODING 61854
SWIDTH 960 0
DWIDTH 16 0
BBX 16 16 0 -2
BITMAP
0000
0000
1FF8
300C
300C
300C
1FF8
0000
0000
0000
0000
0000
0000
0000
0000
0000
ENDCHAR
STARTCHAR U+F19F
ENCODING 61855
SWIDTH 960 0
DWIDTH 16 0
BBX 16 16 0 -2
BITMAP
0000
0000
3FFC
0180
03C0
0E70
381C
0000
0000
0000
0000
0000
0000
0000
0000
0000
ENDCHAR
STARTCHAR U+F1A0
ENCODING 61856
SWIDTH 960 0
DWIDTH 16 0
BBX 16 16 0 -2
BITMAP
0000
0000
3FFC
0C30
1E78
33CC
6186
0000
0000
0000
0000
0000
0000
0000
0000
0000
ENDCHAR
STARTCHAR U+F1A1
ENCODING 61857
SWIDTH 960 0
DWIDTH 16 0
BBX 16 16 0 -2
BITMAP
0000
0000
0180
3FFC
03C0
0E70
381C
0000
0000
0000
0000
0000
0000
0000
0000
0000
ENDCHAR
STARTCHAR U+F1A2
ENCODING 61858
SWIDTH 960 0
DWIDTH 16 0
BBX 16 16 0 -2
BITMAP
0000
0000
3FFC
000C
000C
3FFC
000C
000C
0000
0000
0000
0000
0000
0000
0000
0000
ENDCHAR
STARTCHAR U+F1A3
ENCODING 61859
SWIDTH 960 0
DWIDTH 16 0
BBX 16 16 0 -2
BITMAP
0000
0000
3FFC
3000
3FF8
3000
1FFC
0000
0000
0000
0000
0000
0000
0000
0000
0000
ENDCHAR
STARTCHAR U+F1A4
ENCODING 61860
SWIDTH 960 0
DWIDTH 16 0
BBX 16 16 0 -2
BITMAP
0000
0000
3FFC
0C30
0C30
0C30
3FFC
0000
0000
0000
0000
0000
0000
0000
0000
0000
ENDCHAR
STARTCHAR U+F1A5
ENCODING 61861
SWIDTH 960 0
DWIDTH 16 0
BBX 16 16 0 -2
BITMAP
0000
0000
0180
3FFC
0C30
1818
0FF0
0000
0000
0000
0000
0000
0000
0000
0000
0000
ENDCHAR
STARTCHAR U+F1A6
ENCODING 61862
SWIDTH 960 0
DWIDTH 16 0
BBX 16 16 0 -2
BITMAP
0000
0000
000C
000C
000C
000C
000C
000F
000C
000C
000C
000C
000C
000C
000C
000C
ENDCHAR
STARTCHAR U+F1A7
ENCODING 61863
SWIDTH 960 0
DWIDTH 16 0
BBX 16 16 0 -2
BITMAP
0000
0000
0036
0036
0036
0036
0036
003E
0036
0036
0036
0036
0036
0036
0036
0036
ENDCHAR
STARTCHAR U+F1A8
ENCODING 61864
SWIDTH 960 0
DWIDTH 16 0
BBX 16 16 0 -2
BITMAP
0000
0000
000C
000C
000C
000C
000F
000C
000C
000F
000C
000C
000C
000C
000C
000C
ENDCHAR
STARTCHAR U+F1A9
ENCODING 61865
SWIDTH 960 0
DWIDTH 16 0
BBX 16 16 0 -2
BITMAP
0000
0000
0036
0036
0036
0036
003E
0036
0036
003E
0036
0036
0036
0036
0036
0036
ENDCHAR
STARTCHAR U+F1AA
ENCODING 61866
SWIDTH 960 0
DWIDTH 16 0
BBX 16 16 0 -2
BITMAP
0000
0000
000C
000C
000C
000C
000C
007C
000C
000C
000C
000C
000C
000C
000C
000C
ENDCHAR
STARTCHAR U+F1AB
ENCODING 61867
SWIDTH 960 0
DWIDTH 16 0
BBX 16 16 0 -2
BITMAP
0000
0000
0036
0036
0036
0036
0036
00F6
0036
0036
0036
0036
0036
0036
0036
0036
ENDCHAR
STARTCHAR U+F1AC
ENCODING 61868
SWIDTH 960 0
DWIDTH 16 0
BBX 16 16 0 -2
BITMAP
0000
0000
000C
000C
000C
000C
007C
000C
000C
007C
000C
000C
000C
000C
000C
000C
ENDCHAR
STARTCHAR U+F1AD
ENCODING 61869
SWIDTH 960 0
DWIDTH 16 0
BBX 16 16 0 -2
BITMAP
0000
0000
0036
0036
0036
0036
00F6
0036
0036
00F6
0036
0036
0036
0036
0036
0036
ENDCHAR
STARTCHAR U+F1AE
ENCODING 61870
SWIDTH 960 0
DWIDTH 16 0
BBX 16 16 0 -2
BITMAP
0000
0000
0000
0000
0000
0000
0000
0000
0000
0000
0180
0180
0180
7FFE
0000
0000
ENDCHAR
STARTCHAR U+F1AF
ENCODING 61871
SWIDTH 960 0
DWIDTH 16 0
BBX 16 16 0 -2
BITMAP
0000
0000
000C
000C
000C
000C
000C
000F
000C
000C
0C0C
0C0C
0C0C
FFFC
000C
000C
ENDCHAR
STARTCHAR U+F1B0
ENCODING 61872
SWIDTH 960 0
DWIDTH 16 0
BBX 16 16 0 -2
BITMAP
0000
0000
0036
0036
0036
0036
0036
003E
0036
0036
0C36
0C36
0C36
FFF6
0036
0036
ENDCHAR
STARTCHAR U+F1B1
ENCODING 61873
SWIDTH 960 0
DWIDTH 16 0
BBX 16 16 0 -2
BITMAP
0000
0000
000C
000C
000C
000C
000C
000C
000C
000C
0C0C
0C0C
0C0C
FFFC
000C
000C
ENDCHAR
STARTCHAR U+F1B2
ENCODING 61874
SWIDTH 960 0
DWIDTH 16 0
BBX 16 16 0 -2
BITMAP
0000
0000
0000
0000
0000
0000
0000
0000
0000
0000
0660
0660
0660
7FFE
0000
0000
ENDCHAR
STARTCHAR U+F1B3
ENCODING 61875
SWIDTH 960 0
DWIDTH 16 0
BBX 16 16 0 -2
BITMAP
0000
0000
0000
0000
0000
0000
0000
0000
0000
7FFE
0180
0180
0180
0180
0180
0180
ENDCHAR
STARTCHAR U+F1B4
ENCODING 61876
SWIDTH 960 0
DWIDTH 16 0
BBX 16 16 0 -2
BITMAP
0000
0000
000C
000C
000C
000C
000C
000C
000C
FFFC
0C0C
0C0C
0C7C
0C0C
0C0C
0C0C
ENDCHAR
STARTCHAR U+F1B5
ENCODING 61877
SWIDTH 960 0
DWIDTH 16 0
BBX 16 16 0 -2
BITMAP
0000
0000
0036
0036
0036
0036
0036
0036
0036
FFF6
0C36
0C36
0DF6
0C36
0C36
0C36
ENDCHAR
STARTCHAR U+F1B6
ENCODING 61878
SWIDTH 960 0
DWIDTH 16 0
BBX 16 16 0 -2
BITMAP
0000
0000
000C
000C
000C
000C
000C
000C
000C
FFFC
0C0C
0C0C
0C0C
0C0C
0C0C
0C0C
ENDCHAR
STARTCHAR U+F1B7
ENCODING 61879
SWIDTH 960 0
DWIDTH 16 0
BBX 16 16 0 -2
BITMAP
0000
0000
0000
0000
0000
0000
0000
0000
0000
7FFE
0C30
0C30
0C30
0C30
0C30
0C30
ENDCHAR
STARTCHAR U+F1B8
ENCODING 61880
SWIDTH 960 0
DWIDTH 16 0
BBX 16 16 0 -2
BITMAP
0000
0000
0000
0000
0000
0000
0000
0000
0000
0000
0000
0000
0000
7FFE
0000
0000
ENDCHAR
STARTCHAR U+F1B9
ENCODING 61881
SWIDTH 960 0
DWIDTH 16 0
BBX 16 16 0 -2
BITMAP
0000
0000
000C
000C
000C
000C
000C
000C
000C
000C
000C
000C
000C
FFFC
000C
000C
ENDCHAR
STARTCHAR U+F1BA
ENCODING 61882
SWIDTH 960 0
DWIDTH 16 0
BBX 16 16 0 -2
BITMAP
0000
0000
000C
000C
000C
000C
000C
000C
000C
000C
000C
000C
000C
000C
000C
000C
ENDCHAR
STARTCHAR U+F1BB
ENCODING 61883
SWIDTH 960 0
DWIDTH 16 0
BBX 16 16 0 -2
BITMAP
0000
0000
000C
000C
000C
000F
000C
000C
000C
000C
000C
000C
0000
0000
0000
0000
ENDCHAR
STARTCHAR U+F1BC
ENCODING 61884
SWIDTH 960 0
DWIDTH 16 0
BBX 16 16 0 -2
BITMAP
0000
0000
0036
0036
0036
003E
0036
0036
0036
0036
0036
0036
0000
0000
0000
0000
ENDCHAR
STARTCHAR U+F1BD
ENCODING 61885
SWIDTH 960 0
DWIDTH 16 0
BBX 16 16 0 -2
BITMAP
0000
0000
000C
000C
000F
000C
000C
000F
000C
000C
000C
000C
0000
0000
0000
0000
ENDCHAR
STARTCHAR U+F1BE
ENCODING 61886
SWIDTH 960 0
DWIDTH 16 0
BBX 16 16 0 -2
BITMAP
0000
0000
0036
0036
003E
0036
0036
003E
0036
0036
0036
0036
0000
0000
0000
0000
ENDCHAR
STARTCHAR U+F1BF
ENCODING 61887
SWIDTH 960 0
DWIDTH 16 0
BBX 16 16 0 -2
BITMAP
0000
0000
000C
000C
000C
007C
000C
000C
000C
000C
000C
000C
0000
0000
0000
0000
ENDCHAR
STARTCHAR U+F1C0
ENCODING 61888
SWIDTH 960 0
DWIDTH 16 0
BBX 16 16 0 -2
BITMAP
0000
0000
0036
0036
0036
00F6
0036
0036
0036
0036
0036
0036
0000
0000
0000
0000
ENDCHAR
STARTCHAR U+F1C1
ENCODING 61889
SWIDTH 960 0
DWIDTH 16 0
BBX 16 16 0 -2
BITMAP
0000
0000
000C
000C
007C
000C
000C
007C
000C
000C
000C
000C
0000
0000
0000
0000
ENDCHAR
STARTCHAR U+F1C2
ENCODING 61890
SWIDTH 960 0
DWIDTH 16 0
BBX 16 16 0 -2
BITMAP
0000
0000
0036
0036
00F6
0036
0036
00F6
0036
0036
0036
0036
0000
0000
0000
0000
ENDCHAR
STARTCHAR U+F1C3
ENCODING 61891
SWIDTH 960 0
DWIDTH 16 0
BBX 16 16 0 -2
BITMAP
0000
0000
0000
0000
0000
0000
0000
0180
0180
7FFE
0000
0000
0000
0000
0000
0000
ENDCHAR
STARTCHAR U+F1C4
ENCODING 61892
SWIDTH 960 0
DWIDTH 16 0
BBX 16 16 0 -2
BITMAP
0000
0000
000C
000C
000C
000F
000C
0C0C
0C0C
FFFC
000C
000C
0000
0000
0000
0000
ENDCHAR
STARTCHAR U+F1C5
ENCODING 61893
SWIDTH 960 0
DWIDTH 16 0
BBX 16 16 0 -2
BITMAP
0000
0000
0036
0036
0036
003E
0036
0C36
0C36
FFF6
0036
0036
0000
0000
0000
0000
ENDCHAR
STARTCHAR U+F1C6
ENCODING 61894
SWIDTH 960 0
DWIDTH 16 0
BBX 16 16 0 -2
BITMAP
0000
0000
000C
000C
000C
000C
000C
0C0C
0C0C
FFFC
000C
000C
0000
0000
0000
0000
ENDCHAR
STARTCHAR U+F1C7
ENCODING 61895
SWIDTH 960 0
DWIDTH 16 0
BBX 16 16 0 -2
BITMAP
0000
0000
0000
0000
0000
0000
0000
0660
0660
7FFE
0000
0000
0000
0000
0000
0000
ENDCHAR
STARTCHAR U+F1C8
ENCODING 61896
SWIDTH 960 0
DWIDTH 16 0
BBX 16 16 0 -2
BITMAP
0000
0000
0000
0000
0000
0000
0000
0000
0000
7FFE
0180
0180
0180
0000
0000
0000
ENDCHAR
STARTCHAR U+F1C9
ENCODING 61897
SWIDTH 960 0
DWIDTH 16 0
BBX 16 16 0 -2
BITMAP
0000
0000
000C
000C
000C
000C
000C
000C
FFFC
0C0C
0C7C
000C
0000
0000
0000
0000
ENDCHAR
STARTCHAR U+F1CA
ENCODING 61898
SWIDTH 960 0
DWIDTH 16 0
BBX 16 16 0 -2
BITMAP
0000
0000
0036
0036
0036
0036
0036
0036
FFF6
0C36
0CF6
0036
0000
0000
0000
0000
ENDCHAR
STARTCHAR U+F1CB
ENCODING 61899
SWIDTH 960 0
DWIDTH 16 0
BBX 16 16 0 -2
BITMAP
0000
0000
000C
000C
000C
000C
000C
000C
FFFC
0C0C
0C0C
000C
0000
0000
0000
0000
ENDCHAR
STARTCHAR U+F1CC
ENCODING 61900
SWIDTH 960 0
DWIDTH 16 0
BBX 16 16 0 -2
BITMAP
0000
0000
0000
0000
0000
0000
0000
0000
0000
7FFE
0660
0660
0660
0000
0000
0000
ENDCHAR
STARTCHAR U+F1CD
ENCODING 61901
SWIDTH 960 0
DWIDTH 16 0
BBX 16 16 0 -2
BITMAP
0000
0000
0000
0000
0000
0000
0000
0000
0000
7FFE
0000
0000
0000
0000
0000
0000
ENDCHAR
STARTCHAR U+F1CE
ENCODING 61902
SWIDTH 960 0
DWIDTH 16 0
BBX 16 16 0 -2
BITMAP
0000
0000
000C
000C
000C
000C
000C
000C
000C
FFFC
000C
000C
0000
0000
0000
0000
ENDCHAR
STARTCHAR U+F1CF
ENCODING 61903
SWIDTH 960 0
DWIDTH 16 0
BBX 16 16 0 -2
BITMAP
0000
0000
000C
000C
000C
000C
000C
000C
000C
000C
000C
000C
0000
0000
0000
0000
ENDCHAR
STARTCHAR U+F1D0
ENCODING 61904
SWIDTH 960 0
DWIDTH 16 0
BBX 16 16 0 -2
BITMAP
0000
0000
000C
000C
000C
000F
000C
000C
000C
000C
0000
0000
0000
0000
0000
0000
ENDCHAR
STARTCHAR U+F1D1
ENCODING 61905
SWIDTH 960 0
DWIDTH 16 0
BBX 16 16 0 -2
BITMAP
0000
0000
0036
0036
0036
003E
0036
0036
0036
0036
0000
0000
0000
0000
0000
0000
ENDCHAR
STARTCHAR U+F1D2
ENCODING 61906
SWIDTH 960 0
DWIDTH 16 0
BBX 16 16 0 -2
BITMAP
0000
0000
000C
000C
000F
000C
000C
000F
000C
000C
0000
0000
0000
0000
0000
0000
ENDCHAR
STARTCHAR U+F1D3
ENCODING 61907
SWIDTH 960 0
DWIDTH 16 0
BBX 16 16 0 -2
BITMAP
0000
0000
0036
0036
003E
0036
0036
003E
0036
0036
0000
0000
0000
0000
0000
0000
ENDCHAR
STARTCHAR U+F1D4
ENCODING 61908
SWIDTH 960 0
DWIDTH 16 0
BBX 16 16 0 -2
BITMAP
0000
0000
000C
000C
000C
007C
000C
000C
000C
000C
0000
0000
0000
0000
0000
0000
ENDCHAR
STARTCHAR U+F1D5
ENCODING 61909
SWIDTH 960 0
DWIDTH 16 0
BBX 16 16 0 -2
BITMAP
0000
0000
0036
0036
0036
00F6
0036
0036
0036
0036
0000
0000
0000
0000
0000
0000
ENDCHAR
STARTCHAR U+F1D6
ENCODING 61910
SWIDTH 960 0
DWIDTH 16 0
BBX 16 16 0 -2
BITMAP
0000
0000
000C
000C
007C
000C
000C
007C
000C
000C
0000
0000
0000
0000
0000
0000
ENDCHAR
STARTCHAR U+F1D7
ENCODING 61911
SWIDTH 960 0
DWIDTH 16 0
BBX 16 16 0 -2
BITMAP
0000
0000
0036
0036
00F6
0036
0036
00F6
0036
0036
0000
0000
0000
0000
0000
0000
ENDCHAR
STARTCHAR U+F1D8
ENCODING 61912
SWIDTH 960 0
DWIDTH 16 0
BBX 16 16 0 -2
BITMAP
0000
0000
0000
0000
0000
0000
0000
0180
0180
7FFE
0000
0000
0000
0000
0000
0000
ENDCHAR
STARTCHAR U+F1D9
ENCODING 61913
SWIDTH 960 0
DWIDTH 16 0
BBX 16 16 0 -2
BITMAP
0000
0000
000C
000C
000C
000F
000C
0C0C
0C0C
FFFC
0000
0000
0000
0000
0000
0000
ENDCHAR
STARTCHAR U+F1DA
ENCODING 61914
SWIDTH 960 0
DWIDTH 16 0
BBX 16 16 0 -2
BITMAP
0000
0000
0036
0036
0036
003E
0036
0C36
0C36
FFF6
0000
0000
0000
0000
0000
0000
ENDCHAR
STARTCHAR U+F1DB
ENCODING 61915
SWIDTH 960 0
DWIDTH 16 0
BBX 16 16 0 -2
BITMAP
0000
0000
000C
000C
000C
000C
000C
0C0C
0C0C
FFFC
0000
0000
0000
0000
0000
0000
ENDCHAR
STARTCHAR U+F1DC
ENCODING 61916
SWIDTH 960 0
DWIDTH 16 0
BBX 16 16 0 -2
BITMAP
0000
0000
0000
0000
0000
0000
0000
0660
0660
7FFE
0000
0000
0000
0000
0000
0000
ENDCHAR
STARTCHAR U+F1DD
ENCODING 61917
SWIDTH 960 0
DWIDTH 16 0
BBX 16 16 0 -2
BITMAP
0000
0000
0000
0000
0000
0000
0000
0000
7FFE
0180
0180
0000
0000
0000
0000
0000
ENDCHAR
STARTCHAR U+F1DE
ENCODING 61918
SWIDTH 960 0
DWIDTH 16 0
BBX 16 16 0 -2
BITMAP
0000
0000
000C
000C
000C
007C
000C
000C
FFFC
0C0C
0C00
0000
0000
0000
0000
0000
ENDCHAR
STARTCHAR U+F1DF
ENCODING 61919
SWIDTH 960 0
DWIDTH 16 0
BBX 16 16 0 -2
BITMAP
0000
0000
0036
0036
0036
00F6
0036
0036
FFF6
1836
1800
0000
0000
0000
0000
0000
ENDCHAR
STARTCHAR U+F1E0
ENCODING 61920
SWIDTH 960 0
DWIDTH 16 0
BBX 16 16 0 -2
BITMAP
0000
0000
000C
000C
000C
000C
000C
000C
FFFC
0C0C
0C00
0000
0000
0000
0000
0000
ENDCHAR
STARTCHAR U+F1E1
ENCODING 61921
SWIDTH 960 0
DWIDTH 16 0
BBX 16 16 0 -2
BITMAP
0000
0000
0000
0000
0000
0000
0000
0000
7FFE
0660
0660
0000
0000
0000
0000
0000
ENDCHAR
STARTCHAR U+F1E2
ENCODING 61922
SWIDTH 960 0
DWIDTH 16 0
BBX 16 16 0 -2
BITMAP
0000
0000
0000
0000
0000
0000
0000
0000
7FFE
0000
0000
0000
0000
0000
0000
0000
ENDCHAR
STARTCHAR U+F1E3
ENCODING 61923
SWIDTH 960 0
DWIDTH 16 0
BBX 16 16 0 -2
BITMAP
0000
0000
000C
000C
000C
000C
000C
000C
FFFC
000C
0000
0000
0000
0000
0000
0000
ENDCHAR
STARTCHAR U+F1E4
ENCODING 61924
SWIDTH 960 0
DWIDTH 16 0
BBX 16 16 0 -2
BITMAP
0000
0000
000C
000C
000C
000C
000C
000C
000C
000C
0000
0000
0000
0000
0000
0000
ENDCHAR
STARTCHAR U+F1E5
ENCODING 61925
SWIDTH 960 0
DWIDTH 16 0
BBX 16 16 0 -2
BITMAP
0000
0000
0000
0000
0000
0000
0000
0000
0000
0000
0000
3FF8
000C
000C
000C
000C
ENDCHAR
STARTCHAR U+F1E6
ENCODING 61926
SWIDTH 960 0
DWIDTH 16 0
BBX 16 16 0 -2
BITMAP
0000
0000
0000
0000
0000
0000
0000
0000
0000
0000
0000
3EF8
030C
030C
030C
030C
ENDCHAR
STARTCHAR U+F1E7
ENCODING 61927
SWIDTH 960 0
DWIDTH 16 0
BBX 16 16 0 -2
BITMAP
0000
0000
0000
0000
0000
0000
0000
0000
0000
0000
0000
3E30
0330
0330
0378
03CE
ENDCHAR
STARTCHAR U+F1E8
ENCODING 61928
SWIDTH 960 0
DWIDTH 16 0
BBX 16 16 0 -2
BITMAP
0000
0000
0000
0000
0000
0000
0000
0000
0000
0000
0000
3000
3000
3000
3000
1FFC
ENDCHAR
STARTCHAR U+F1E9
ENCODING 61929
SWIDTH 960 0
DWIDTH 16 0
BBX 16 16 0 -2
BITMAP
0000
0000
0000
0000
0000
0000
0000
0000
0000
0000
0000
30FC
3030
3030
3078
1FCE
ENDCHAR
STARTCHAR U+F1EA
ENCODING 61930
SWIDTH 960 0
DWIDTH 16 0
BBX 16 16 0 -2
BITMAP
0000
0000
0000
0000
0000
0000
0000
0000
0000
0000
0000
3078
3000
31FE
30CC
1F78
ENDCHAR
STARTCHAR U+F1EB
ENCODING 61931
SWIDTH 960 0
DWIDTH 16 0
BBX 16 16 0 -2
BITMAP
0000
0000
0000
0000
0000
0000
0000
0000
0000
0000
0000
3FFC
3000
3000
3000
1FFC
ENDCHAR
STARTCHAR U+F1EC
ENCODING 61932
SWIDTH 960 0
DWIDTH 16 0
BBX 16 16 0 -2
BITMAP
0000
0000
0000
0000
0000
0000
0000
0000
0000
0000
0000
3FFC
000C
3FF8
3000
1FFC
ENDCHAR
STARTCHAR U+F1ED
ENCODING 61933
SWIDTH 960 0
DWIDTH 16 0
BBX 16 16 0 -2
BITMAP
0000
0000
0000
0000
0000
0000
0000
0000
0000
0000
0000
3EF8
030C
3E0C
300C
1F0C
ENDCHAR
STARTCHAR U+F1EE
ENCODING 61934
SWIDTH 960 0
DWIDTH 16 0
BBX 16 16 0 -2
BITMAP
0000
0000
0000
0000
0000
0000
0000
0000
0000
0000
0000
3EFC
03CC
3ECC
30CC
1F7C
ENDCHAR
STARTCHAR U+F1EF
ENCODING 61935
SWIDTH 960 0
DWIDTH 16 0
BBX 16 16 0 -2
BITMAP
0000
0000
0000
0000
0000
0000
0000
0000
0000
0000
0000
3ECC
03CC
3EFC
30CC
1F7C
ENDCHAR
STARTCHAR U+F1F0
ENCODING 61936
SWIDTH 960 0
DWIDTH 16 0
BBX 16 16 0 -2
BITMAP
0000
0000
0000
0000
0000
0000
0000
0000
0000
0000
0000
3E30
0330
3E30
3078
1FCE
ENDCHAR
STARTCHAR U+F1F1
ENCODING 61937
SWIDTH 960 0
DWIDTH 16 0
BBX 16 16 0 -2
BITMAP
0000
0000
0000
0000
0000
0000
0000
0000
0000
0000
0000
3EFC
03C0
3EFC
30C0
1F7C
ENDCHAR
STARTCHAR U+F1F2
ENCODING 61938
SWIDTH 960 0
DWIDTH 16 0
BBX 16 16 0 -2
BITMAP
0000
0000
0000
0000
0000
0000
0000
0000
0000
0000
0000
3EFE
036C
3E6C
306C
1FFE
ENDCHAR
STARTCHAR U+F1F3
ENCODING 61939
SWIDTH 960 0
DWIDTH 16 0
BBX 16 16 0 -2
BITMAP
0000
0000
0000
0000
0000
0000
0000
0000
0000
0000
0000
3E78
0300
3FFE
30CC
1F78
ENDCHAR
STARTCHAR U+F1F4
ENCODING 61940
SWIDTH 960 0
DWIDTH 16 0
BBX 16 16 0 -2
BITMAP
0000
0000
0000
0000
0000
0000
0000
0000
0000
0000
0000
3FFC
300C
300C
300C
1FFC
ENDCHAR
STARTCHAR U+F1F5
ENCODING 61941
SWIDTH 960 0
DWIDTH 16 0
BBX 16 16 0 -2
BITMAP
0000
0000
0000
0000
0000
0000
0000
0000
0000
0000
0000
300C
300C
3FFC
300C
1FFC
ENDCHAR
STARTCHAR U+F1F6
ENCODING 61942
SWIDTH 960 0
DWIDTH 16 0
BBX 16 16 0 -2
BITMAP
0000
0000
0000
0000
0000
0000
0000
0000
0000
0000
0000
3330
3330
3F30
3378
1FCE
ENDCHAR
STARTCHAR U+F1F7
ENCODING 61943
SWIDTH 960 0
DWIDTH 16 0
BBX 16 16 0 -2
BITMAP
0000
0000
0000
0000
0000
0000
0000
0000
0000
0000
0000
0180
0180
03C0
0E70
381C
ENDCHAR
STARTCHAR U+F1F8
ENCODING 61944
SWIDTH 960 0
DWIDTH 16 0
BBX 16 16 0 -2
BITMAP
0000
0000
0000
0000
0000
0000
0000
0000
0000
0000
0000
0000
0C30
0C30
1E78
73CE
ENDCHAR
STARTCHAR U+F1F9
ENCODING 61945
SWIDTH 960 0
DWIDTH 16 0
BBX 16 16 0 -2
BITMAP
0000
0000
0000
0000
0000
0000
0000
0000
0000
0000
0000
1FF8
300C
300C
300C
1FF8
ENDCHAR
STARTCHAR U+F1FA
ENCODING 61946
SWIDTH 960 0
DWIDTH 16 0
BBX 16 16 0 -2
BITMAP
0000
0000
0000
0000
0000
0000
0000
0000
0000
0000
0000
3FFC
0180
03C0
0E70
381C
ENDCHAR
STARTCHAR U+F1FB
ENCODING 61947
SWIDTH 960 0
DWIDTH 16 0
BBX 16 16 0 -2
BITMAP
0000
0000
0000
0000
0000
0000
0000
0000
0000
0000
0000
07E0
0000
3FFC
0660
3C3C
ENDCHAR
STARTCHAR U+F1FC
ENCODING 61948
SWIDTH 960 0
DWIDTH 16 0
BBX 16 16 0 -2
BITMAP
0000
0000
0000
0000
0000
0000
0000
0000
0000
0000
0000
3FF8
000C
3FFC
000C
000C
ENDCHAR
STARTCHAR U+F1FD
ENCODING 61949
SWIDTH 960 0
DWIDTH 16 0
BBX 16 16 0 -2
BITMAP
0000
0000
0000
0000
0000
0000
0000
0000
0000
0000
0000
3FFC
3000
3FF8
3000
1FFC
ENDCHAR
STARTCHAR U+F1FE
ENCODING 61950
SWIDTH 960 0
DWIDTH 16 0
BBX 16 16 0 -2
BITMAP
0000
0000
0000
0000
0000
0000
0000
0000
0000
0000
0000
3FFC
0C30
0C30
0C30
3FFC
ENDCHAR
STARTCHAR U+F1FF
ENCODING 61951
SWIDTH 960 0
DWIDTH 16 0
BBX 16 16 0 -2
BITMAP
0000
0000
0000
0000
0000
0000
0000
0000
0000
0000
0000
07E0
0000
3FFC
1818
0FF0
ENDCHAR
ENDFONT
